<mxfile host="app.diagrams.net" agent="Mozilla/5.0 (Windows NT 10.0; Win64; x64) AppleWebKit/537.36 (KHTML, like Gecko) Chrome/128.0.0.0 Safari/537.36" version="24.7.14">
  <diagram name="Страница — 1" id="jk7Gp_ShFf1EGiZC76RD">
    <mxGraphModel dx="634" dy="790" grid="0" gridSize="10" guides="1" tooltips="1" connect="1" arrows="1" fold="1" page="0" pageScale="1" pageWidth="827" pageHeight="1169" math="0" shadow="0">
      <root>
        <mxCell id="0" />
        <mxCell id="1" parent="0" />
        <mxCell id="mWvDDhN56M6IgN8WE3Ld-67" style="edgeStyle=orthogonalEdgeStyle;rounded=0;orthogonalLoop=1;jettySize=auto;html=1;exitX=0.5;exitY=1;exitDx=0;exitDy=0;shape=flexArrow;" parent="1" source="mWvDDhN56M6IgN8WE3Ld-69" target="mWvDDhN56M6IgN8WE3Ld-63" edge="1">
          <mxGeometry relative="1" as="geometry" />
        </mxCell>
        <mxCell id="mWvDDhN56M6IgN8WE3Ld-68" style="edgeStyle=orthogonalEdgeStyle;rounded=0;orthogonalLoop=1;jettySize=auto;html=1;exitX=0.5;exitY=1;exitDx=0;exitDy=0;shape=flexArrow;" parent="1" source="mWvDDhN56M6IgN8WE3Ld-69" target="mWvDDhN56M6IgN8WE3Ld-3" edge="1">
          <mxGeometry relative="1" as="geometry" />
        </mxCell>
        <mxCell id="oT39nbBuMpAFQhDl_KzM-63" style="edgeStyle=orthogonalEdgeStyle;rounded=0;orthogonalLoop=1;jettySize=auto;html=1;entryX=0.5;entryY=0;entryDx=0;entryDy=0;shape=flexArrow;" parent="1" source="mWvDDhN56M6IgN8WE3Ld-69" target="mWvDDhN56M6IgN8WE3Ld-21" edge="1">
          <mxGeometry relative="1" as="geometry">
            <mxPoint x="1722" y="479.9999999999998" as="targetPoint" />
            <Array as="points">
              <mxPoint x="1725" y="176" />
              <mxPoint x="1636" y="176" />
              <mxPoint x="1636" y="435" />
              <mxPoint x="1725" y="435" />
            </Array>
          </mxGeometry>
        </mxCell>
        <mxCell id="mWvDDhN56M6IgN8WE3Ld-69" value="&lt;font style=&quot;font-size: 21px;&quot;&gt;КСС&lt;/font&gt;" style="rounded=0;whiteSpace=wrap;html=1;" parent="1" vertex="1">
          <mxGeometry x="1665" y="80" width="120" height="60" as="geometry" />
        </mxCell>
        <mxCell id="oT39nbBuMpAFQhDl_KzM-66" value="" style="group" parent="1" vertex="1" connectable="0">
          <mxGeometry x="1150" y="479" width="1150" height="291" as="geometry" />
        </mxCell>
        <mxCell id="mWvDDhN56M6IgN8WE3Ld-21" value="" style="rounded=0;whiteSpace=wrap;html=1;fillColor=none;dashed=1;dashPattern=1 1;strokeWidth=3;container=0;" parent="oT39nbBuMpAFQhDl_KzM-66" vertex="1">
          <mxGeometry width="1150" height="291" as="geometry" />
        </mxCell>
        <mxCell id="oT39nbBuMpAFQhDl_KzM-27" style="edgeStyle=orthogonalEdgeStyle;rounded=0;orthogonalLoop=1;jettySize=auto;html=1;exitX=0.5;exitY=0;exitDx=0;exitDy=0;entryX=0.5;entryY=0;entryDx=0;entryDy=0;" parent="oT39nbBuMpAFQhDl_KzM-66" source="mWvDDhN56M6IgN8WE3Ld-21" target="mWvDDhN56M6IgN8WE3Ld-105" edge="1">
          <mxGeometry relative="1" as="geometry">
            <Array as="points">
              <mxPoint x="565" y="40" />
              <mxPoint x="687" y="40" />
            </Array>
          </mxGeometry>
        </mxCell>
        <mxCell id="oT39nbBuMpAFQhDl_KzM-28" style="edgeStyle=orthogonalEdgeStyle;rounded=0;orthogonalLoop=1;jettySize=auto;html=1;exitX=0.5;exitY=0;exitDx=0;exitDy=0;" parent="oT39nbBuMpAFQhDl_KzM-66" source="mWvDDhN56M6IgN8WE3Ld-21" target="mWvDDhN56M6IgN8WE3Ld-108" edge="1">
          <mxGeometry relative="1" as="geometry">
            <Array as="points">
              <mxPoint x="575" y="40" />
              <mxPoint x="444" y="40" />
            </Array>
          </mxGeometry>
        </mxCell>
        <mxCell id="oT39nbBuMpAFQhDl_KzM-29" style="edgeStyle=orthogonalEdgeStyle;rounded=0;orthogonalLoop=1;jettySize=auto;html=1;exitX=0.5;exitY=0;exitDx=0;exitDy=0;" parent="oT39nbBuMpAFQhDl_KzM-66" source="mWvDDhN56M6IgN8WE3Ld-21" target="mWvDDhN56M6IgN8WE3Ld-43" edge="1">
          <mxGeometry relative="1" as="geometry">
            <Array as="points">
              <mxPoint x="575" y="40" />
              <mxPoint x="981" y="40" />
            </Array>
          </mxGeometry>
        </mxCell>
        <mxCell id="oT39nbBuMpAFQhDl_KzM-30" style="edgeStyle=orthogonalEdgeStyle;rounded=0;orthogonalLoop=1;jettySize=auto;html=1;exitX=0.5;exitY=0;exitDx=0;exitDy=0;entryX=0.5;entryY=0;entryDx=0;entryDy=0;" parent="oT39nbBuMpAFQhDl_KzM-66" source="mWvDDhN56M6IgN8WE3Ld-21" target="oT39nbBuMpAFQhDl_KzM-7" edge="1">
          <mxGeometry relative="1" as="geometry">
            <Array as="points">
              <mxPoint x="575" y="40" />
              <mxPoint x="151" y="40" />
            </Array>
          </mxGeometry>
        </mxCell>
        <mxCell id="mWvDDhN56M6IgN8WE3Ld-35" value="Протоколы передачи данных" style="rounded=0;whiteSpace=wrap;html=1;container=0;" parent="oT39nbBuMpAFQhDl_KzM-66" vertex="1">
          <mxGeometry x="581.0263157894738" y="160" width="138.94736842105263" height="35" as="geometry" />
        </mxCell>
        <mxCell id="mWvDDhN56M6IgN8WE3Ld-22" value="&lt;b&gt;&lt;font style=&quot;font-size: 14px;&quot;&gt;Программное и сетевое обеспечение&lt;/font&gt;&lt;/b&gt;" style="rounded=0;whiteSpace=wrap;html=1;fillColor=none;strokeColor=none;container=0;" parent="oT39nbBuMpAFQhDl_KzM-66" vertex="1">
          <mxGeometry x="160.00185410334325" y="0.00428571428574287" width="261.5881458966565" height="32.14285714285714" as="geometry" />
        </mxCell>
        <mxCell id="mWvDDhN56M6IgN8WE3Ld-39" value="Механизмы шифрования данных" style="whiteSpace=wrap;html=1;rounded=0;container=0;" parent="oT39nbBuMpAFQhDl_KzM-66" vertex="1">
          <mxGeometry x="861.0021276595744" y="216.11" width="127.65957446808511" height="44.28" as="geometry" />
        </mxCell>
        <mxCell id="mWvDDhN56M6IgN8WE3Ld-40" value="Средства защиты от кибератак" style="whiteSpace=wrap;html=1;rounded=0;container=0;" parent="oT39nbBuMpAFQhDl_KzM-66" vertex="1">
          <mxGeometry x="1001" y="216.11" width="127.66" height="45.28" as="geometry" />
        </mxCell>
        <mxCell id="oT39nbBuMpAFQhDl_KzM-15" style="edgeStyle=orthogonalEdgeStyle;rounded=0;orthogonalLoop=1;jettySize=auto;html=1;entryX=0;entryY=0.5;entryDx=0;entryDy=0;" parent="oT39nbBuMpAFQhDl_KzM-66" source="mWvDDhN56M6IgN8WE3Ld-43" target="mWvDDhN56M6IgN8WE3Ld-39" edge="1">
          <mxGeometry relative="1" as="geometry">
            <Array as="points">
              <mxPoint x="995" y="138.75" />
              <mxPoint x="844" y="138.75" />
              <mxPoint x="844" y="238.75" />
              <mxPoint x="861" y="238.75" />
            </Array>
          </mxGeometry>
        </mxCell>
        <mxCell id="oT39nbBuMpAFQhDl_KzM-16" style="edgeStyle=orthogonalEdgeStyle;rounded=0;orthogonalLoop=1;jettySize=auto;html=1;" parent="oT39nbBuMpAFQhDl_KzM-66" source="mWvDDhN56M6IgN8WE3Ld-43" target="mWvDDhN56M6IgN8WE3Ld-44" edge="1">
          <mxGeometry relative="1" as="geometry" />
        </mxCell>
        <mxCell id="oT39nbBuMpAFQhDl_KzM-19" style="edgeStyle=orthogonalEdgeStyle;rounded=0;orthogonalLoop=1;jettySize=auto;html=1;entryX=1;entryY=0.5;entryDx=0;entryDy=0;" parent="oT39nbBuMpAFQhDl_KzM-66" source="mWvDDhN56M6IgN8WE3Ld-43" target="mWvDDhN56M6IgN8WE3Ld-40" edge="1">
          <mxGeometry relative="1" as="geometry">
            <Array as="points">
              <mxPoint x="995" y="138.75" />
              <mxPoint x="1144" y="138.75" />
              <mxPoint x="1144" y="238.75" />
            </Array>
          </mxGeometry>
        </mxCell>
        <mxCell id="mWvDDhN56M6IgN8WE3Ld-43" value="Средства информационной безопасности" style="rounded=0;whiteSpace=wrap;html=1;container=0;" parent="oT39nbBuMpAFQhDl_KzM-66" vertex="1">
          <mxGeometry x="931" y="80" width="127.66" height="40" as="geometry" />
        </mxCell>
        <mxCell id="mWvDDhN56M6IgN8WE3Ld-44" value="Средства предупреждения кибер-угроз" style="whiteSpace=wrap;html=1;rounded=0;container=0;" parent="oT39nbBuMpAFQhDl_KzM-66" vertex="1">
          <mxGeometry x="931" y="158.75" width="127.66" height="50" as="geometry" />
        </mxCell>
        <mxCell id="mWvDDhN56M6IgN8WE3Ld-25" value="Алгоритмы выведения спутников на орбиту" style="rounded=0;whiteSpace=wrap;html=1;container=0;" parent="oT39nbBuMpAFQhDl_KzM-66" vertex="1">
          <mxGeometry x="26" y="210" width="120" height="60" as="geometry" />
        </mxCell>
        <mxCell id="mWvDDhN56M6IgN8WE3Ld-26" value="Алгоритмы коррекции пространственного положения КА" style="rounded=0;whiteSpace=wrap;html=1;container=0;" parent="oT39nbBuMpAFQhDl_KzM-66" vertex="1">
          <mxGeometry x="91" y="144.27999999999997" width="120" height="60" as="geometry" />
        </mxCell>
        <mxCell id="mWvDDhN56M6IgN8WE3Ld-27" value="Алгоритмы исполнительной автоматики КА" style="rounded=0;whiteSpace=wrap;html=1;container=0;" parent="oT39nbBuMpAFQhDl_KzM-66" vertex="1">
          <mxGeometry x="156" y="210" width="120" height="60" as="geometry" />
        </mxCell>
        <mxCell id="mWvDDhN56M6IgN8WE3Ld-106" style="edgeStyle=orthogonalEdgeStyle;rounded=0;orthogonalLoop=1;jettySize=auto;html=1;" parent="oT39nbBuMpAFQhDl_KzM-66" source="mWvDDhN56M6IgN8WE3Ld-105" target="mWvDDhN56M6IgN8WE3Ld-35" edge="1">
          <mxGeometry relative="1" as="geometry">
            <Array as="points">
              <mxPoint x="701" y="130" />
              <mxPoint x="630" y="130" />
            </Array>
          </mxGeometry>
        </mxCell>
        <mxCell id="oT39nbBuMpAFQhDl_KzM-14" style="edgeStyle=orthogonalEdgeStyle;rounded=0;orthogonalLoop=1;jettySize=auto;html=1;entryX=0.5;entryY=0;entryDx=0;entryDy=0;" parent="oT39nbBuMpAFQhDl_KzM-66" source="mWvDDhN56M6IgN8WE3Ld-105" target="oT39nbBuMpAFQhDl_KzM-13" edge="1">
          <mxGeometry relative="1" as="geometry">
            <Array as="points">
              <mxPoint x="701" y="130" />
              <mxPoint x="781" y="130" />
            </Array>
          </mxGeometry>
        </mxCell>
        <mxCell id="mWvDDhN56M6IgN8WE3Ld-105" value="Архитектура передачи данных" style="rounded=0;whiteSpace=wrap;html=1;" parent="oT39nbBuMpAFQhDl_KzM-66" vertex="1">
          <mxGeometry x="641" y="80" width="120" height="42.5" as="geometry" />
        </mxCell>
        <mxCell id="oT39nbBuMpAFQhDl_KzM-6" value="" style="group" parent="oT39nbBuMpAFQhDl_KzM-66" vertex="1" connectable="0">
          <mxGeometry x="304" y="80" width="270" height="105.35000000000002" as="geometry" />
        </mxCell>
        <mxCell id="mWvDDhN56M6IgN8WE3Ld-31" value="Пользовательское ПО" style="rounded=0;whiteSpace=wrap;html=1;container=0;" parent="oT39nbBuMpAFQhDl_KzM-6" vertex="1">
          <mxGeometry y="80.00000000000006" width="130" height="34.28" as="geometry" />
        </mxCell>
        <mxCell id="oT39nbBuMpAFQhDl_KzM-1" style="edgeStyle=orthogonalEdgeStyle;rounded=0;orthogonalLoop=1;jettySize=auto;html=1;" parent="oT39nbBuMpAFQhDl_KzM-6" source="mWvDDhN56M6IgN8WE3Ld-108" target="mWvDDhN56M6IgN8WE3Ld-31" edge="1">
          <mxGeometry relative="1" as="geometry">
            <Array as="points">
              <mxPoint x="140" y="50" />
              <mxPoint x="65" y="50" />
            </Array>
          </mxGeometry>
        </mxCell>
        <mxCell id="oT39nbBuMpAFQhDl_KzM-5" style="edgeStyle=orthogonalEdgeStyle;rounded=0;orthogonalLoop=1;jettySize=auto;html=1;" parent="oT39nbBuMpAFQhDl_KzM-6" source="mWvDDhN56M6IgN8WE3Ld-108" target="oT39nbBuMpAFQhDl_KzM-3" edge="1">
          <mxGeometry relative="1" as="geometry">
            <Array as="points">
              <mxPoint x="140" y="50" />
              <mxPoint x="205" y="50" />
            </Array>
          </mxGeometry>
        </mxCell>
        <mxCell id="mWvDDhN56M6IgN8WE3Ld-108" value="Программное обеспечение" style="rounded=0;whiteSpace=wrap;html=1;" parent="oT39nbBuMpAFQhDl_KzM-6" vertex="1">
          <mxGeometry x="80" width="120" height="40" as="geometry" />
        </mxCell>
        <mxCell id="oT39nbBuMpAFQhDl_KzM-3" value="ПО для управления и мониторинга КСС" style="rounded=0;whiteSpace=wrap;html=1;container=0;" parent="oT39nbBuMpAFQhDl_KzM-6" vertex="1">
          <mxGeometry x="140" y="80.00000000000006" width="130" height="34.28" as="geometry" />
        </mxCell>
        <mxCell id="oT39nbBuMpAFQhDl_KzM-8" style="edgeStyle=orthogonalEdgeStyle;rounded=0;orthogonalLoop=1;jettySize=auto;html=1;entryX=0;entryY=0.5;entryDx=0;entryDy=0;" parent="oT39nbBuMpAFQhDl_KzM-66" source="oT39nbBuMpAFQhDl_KzM-7" target="mWvDDhN56M6IgN8WE3Ld-25" edge="1">
          <mxGeometry relative="1" as="geometry">
            <Array as="points">
              <mxPoint x="151" y="130" />
              <mxPoint x="4" y="130" />
              <mxPoint x="4" y="240" />
            </Array>
          </mxGeometry>
        </mxCell>
        <mxCell id="oT39nbBuMpAFQhDl_KzM-9" style="edgeStyle=orthogonalEdgeStyle;rounded=0;orthogonalLoop=1;jettySize=auto;html=1;" parent="oT39nbBuMpAFQhDl_KzM-66" source="oT39nbBuMpAFQhDl_KzM-7" target="mWvDDhN56M6IgN8WE3Ld-26" edge="1">
          <mxGeometry relative="1" as="geometry" />
        </mxCell>
        <mxCell id="oT39nbBuMpAFQhDl_KzM-12" style="edgeStyle=orthogonalEdgeStyle;rounded=0;orthogonalLoop=1;jettySize=auto;html=1;exitX=0.5;exitY=1;exitDx=0;exitDy=0;" parent="oT39nbBuMpAFQhDl_KzM-66" source="oT39nbBuMpAFQhDl_KzM-7" target="mWvDDhN56M6IgN8WE3Ld-27" edge="1">
          <mxGeometry relative="1" as="geometry">
            <Array as="points">
              <mxPoint x="151" y="130" />
              <mxPoint x="294" y="130" />
              <mxPoint x="294" y="240" />
            </Array>
          </mxGeometry>
        </mxCell>
        <mxCell id="oT39nbBuMpAFQhDl_KzM-7" value="Алгоритмы КА и средств выведения" style="rounded=0;whiteSpace=wrap;html=1;" parent="oT39nbBuMpAFQhDl_KzM-66" vertex="1">
          <mxGeometry x="91" y="80" width="120" height="40" as="geometry" />
        </mxCell>
        <mxCell id="oT39nbBuMpAFQhDl_KzM-13" value="Сетевые алгоритмы" style="rounded=0;whiteSpace=wrap;html=1;container=0;" parent="oT39nbBuMpAFQhDl_KzM-66" vertex="1">
          <mxGeometry x="724" y="160" width="113" height="35" as="geometry" />
        </mxCell>
        <mxCell id="30epbqIWe4ji9FLCHf8E-1" value="" style="group" parent="1" vertex="1" connectable="0">
          <mxGeometry x="1222" y="211" width="402" height="220" as="geometry" />
        </mxCell>
        <mxCell id="mWvDDhN56M6IgN8WE3Ld-63" value="" style="rounded=0;whiteSpace=wrap;html=1;fillColor=none;dashed=1;dashPattern=1 1;strokeWidth=3;" parent="30epbqIWe4ji9FLCHf8E-1" vertex="1">
          <mxGeometry width="385" height="220" as="geometry" />
        </mxCell>
        <mxCell id="oT39nbBuMpAFQhDl_KzM-41" style="edgeStyle=orthogonalEdgeStyle;rounded=0;orthogonalLoop=1;jettySize=auto;html=1;exitX=0.5;exitY=0;exitDx=0;exitDy=0;entryX=0.5;entryY=0;entryDx=0;entryDy=0;" parent="30epbqIWe4ji9FLCHf8E-1" source="mWvDDhN56M6IgN8WE3Ld-63" target="mWvDDhN56M6IgN8WE3Ld-60" edge="1">
          <mxGeometry relative="1" as="geometry">
            <Array as="points">
              <mxPoint x="205" y="60" />
              <mxPoint x="184" y="60" />
              <mxPoint x="184" y="87" />
            </Array>
          </mxGeometry>
        </mxCell>
        <mxCell id="mWvDDhN56M6IgN8WE3Ld-82" style="edgeStyle=orthogonalEdgeStyle;rounded=0;orthogonalLoop=1;jettySize=auto;html=1;exitX=0.5;exitY=0;exitDx=0;exitDy=0;entryX=0.5;entryY=0;entryDx=0;entryDy=0;" parent="30epbqIWe4ji9FLCHf8E-1" source="mWvDDhN56M6IgN8WE3Ld-63" target="mWvDDhN56M6IgN8WE3Ld-57" edge="1">
          <mxGeometry relative="1" as="geometry">
            <Array as="points">
              <mxPoint x="205" y="60" />
              <mxPoint x="72" y="60" />
            </Array>
          </mxGeometry>
        </mxCell>
        <mxCell id="mWvDDhN56M6IgN8WE3Ld-84" style="edgeStyle=orthogonalEdgeStyle;rounded=0;orthogonalLoop=1;jettySize=auto;html=1;exitX=0.5;exitY=0;exitDx=0;exitDy=0;entryX=0.5;entryY=0;entryDx=0;entryDy=0;" parent="30epbqIWe4ji9FLCHf8E-1" source="mWvDDhN56M6IgN8WE3Ld-63" target="mWvDDhN56M6IgN8WE3Ld-59" edge="1">
          <mxGeometry relative="1" as="geometry">
            <Array as="points">
              <mxPoint x="205" y="60" />
              <mxPoint x="304" y="60" />
            </Array>
          </mxGeometry>
        </mxCell>
        <mxCell id="mWvDDhN56M6IgN8WE3Ld-57" value="Параметры орбиты" style="rounded=0;whiteSpace=wrap;html=1;" parent="30epbqIWe4ji9FLCHf8E-1" vertex="1">
          <mxGeometry x="10" y="90" width="120" height="40" as="geometry" />
        </mxCell>
        <mxCell id="mWvDDhN56M6IgN8WE3Ld-59" value="Механизм межспутниковой связи" style="rounded=0;whiteSpace=wrap;html=1;" parent="30epbqIWe4ji9FLCHf8E-1" vertex="1">
          <mxGeometry x="240" y="90" width="130" height="40" as="geometry" />
        </mxCell>
        <mxCell id="oT39nbBuMpAFQhDl_KzM-45" style="edgeStyle=orthogonalEdgeStyle;rounded=0;orthogonalLoop=1;jettySize=auto;html=1;exitX=0.5;exitY=1;exitDx=0;exitDy=0;entryX=0.5;entryY=0;entryDx=0;entryDy=0;" parent="30epbqIWe4ji9FLCHf8E-1" source="mWvDDhN56M6IgN8WE3Ld-60" target="mWvDDhN56M6IgN8WE3Ld-51" edge="1">
          <mxGeometry relative="1" as="geometry">
            <Array as="points">
              <mxPoint x="184" y="135" />
              <mxPoint x="126" y="135" />
            </Array>
          </mxGeometry>
        </mxCell>
        <mxCell id="oT39nbBuMpAFQhDl_KzM-47" style="edgeStyle=orthogonalEdgeStyle;rounded=0;orthogonalLoop=1;jettySize=auto;html=1;exitX=0.5;exitY=1;exitDx=0;exitDy=0;entryX=0.5;entryY=0;entryDx=0;entryDy=0;" parent="30epbqIWe4ji9FLCHf8E-1" source="mWvDDhN56M6IgN8WE3Ld-60" target="mWvDDhN56M6IgN8WE3Ld-52" edge="1">
          <mxGeometry relative="1" as="geometry">
            <Array as="points">
              <mxPoint x="184" y="135" />
              <mxPoint x="249" y="135" />
            </Array>
          </mxGeometry>
        </mxCell>
        <mxCell id="mWvDDhN56M6IgN8WE3Ld-60" value="Спутники связи" style="rounded=0;whiteSpace=wrap;html=1;" parent="30epbqIWe4ji9FLCHf8E-1" vertex="1">
          <mxGeometry x="140" y="90" width="90" height="40" as="geometry" />
        </mxCell>
        <mxCell id="mWvDDhN56M6IgN8WE3Ld-65" value="&lt;b&gt;&lt;font style=&quot;font-size: 14px;&quot;&gt;Орбитальная группировка спутников&lt;/font&gt;&lt;/b&gt;" style="rounded=0;whiteSpace=wrap;html=1;fillColor=none;strokeColor=none;" parent="30epbqIWe4ji9FLCHf8E-1" vertex="1">
          <mxGeometry x="177" y="13" width="225" height="20.36" as="geometry" />
        </mxCell>
        <mxCell id="mWvDDhN56M6IgN8WE3Ld-51" value="Полезная нагрузка" style="rounded=0;whiteSpace=wrap;html=1;" parent="30epbqIWe4ji9FLCHf8E-1" vertex="1">
          <mxGeometry x="67" y="152" width="120" height="30" as="geometry" />
        </mxCell>
        <mxCell id="mWvDDhN56M6IgN8WE3Ld-52" value="Модуль служебных систем" style="rounded=0;whiteSpace=wrap;html=1;" parent="30epbqIWe4ji9FLCHf8E-1" vertex="1">
          <mxGeometry x="190" y="152" width="120" height="30" as="geometry" />
        </mxCell>
        <mxCell id="30epbqIWe4ji9FLCHf8E-5" style="edgeStyle=orthogonalEdgeStyle;rounded=0;orthogonalLoop=1;jettySize=auto;html=1;exitX=0.5;exitY=0;exitDx=0;exitDy=0;entryX=0.5;entryY=0;entryDx=0;entryDy=0;" parent="1" source="mWvDDhN56M6IgN8WE3Ld-3" target="mWvDDhN56M6IgN8WE3Ld-8" edge="1">
          <mxGeometry relative="1" as="geometry">
            <Array as="points">
              <mxPoint x="1961" y="250" />
              <mxPoint x="1748" y="250" />
            </Array>
          </mxGeometry>
        </mxCell>
        <mxCell id="30epbqIWe4ji9FLCHf8E-6" style="edgeStyle=orthogonalEdgeStyle;rounded=0;orthogonalLoop=1;jettySize=auto;html=1;exitX=0.5;exitY=0;exitDx=0;exitDy=0;entryX=0.5;entryY=0;entryDx=0;entryDy=0;" parent="1" source="mWvDDhN56M6IgN8WE3Ld-3" target="mWvDDhN56M6IgN8WE3Ld-6" edge="1">
          <mxGeometry relative="1" as="geometry">
            <Array as="points">
              <mxPoint x="1961" y="250" />
              <mxPoint x="1863" y="250" />
            </Array>
          </mxGeometry>
        </mxCell>
        <mxCell id="mWvDDhN56M6IgN8WE3Ld-3" value="" style="rounded=0;whiteSpace=wrap;html=1;fillColor=none;dashed=1;dashPattern=1 1;strokeWidth=3;" parent="1" vertex="1">
          <mxGeometry x="1666" y="210" width="590" height="211" as="geometry" />
        </mxCell>
        <mxCell id="mWvDDhN56M6IgN8WE3Ld-4" value="&lt;b&gt;&lt;font style=&quot;font-size: 14px;&quot;&gt;Наземная инфраструктура&lt;/font&gt;&lt;/b&gt;" style="rounded=0;whiteSpace=wrap;html=1;fillColor=none;strokeColor=none;" parent="1" vertex="1">
          <mxGeometry x="1683" y="219" width="190" height="23.57" as="geometry" />
        </mxCell>
        <mxCell id="mWvDDhN56M6IgN8WE3Ld-5" value="ЦУП КА" style="rounded=0;whiteSpace=wrap;html=1;" parent="1" vertex="1">
          <mxGeometry x="1916" y="300" width="60" height="40" as="geometry" />
        </mxCell>
        <mxCell id="30epbqIWe4ji9FLCHf8E-2" style="edgeStyle=orthogonalEdgeStyle;rounded=0;orthogonalLoop=1;jettySize=auto;html=1;entryX=0.5;entryY=0;entryDx=0;entryDy=0;" parent="1" source="mWvDDhN56M6IgN8WE3Ld-6" target="mWvDDhN56M6IgN8WE3Ld-14" edge="1">
          <mxGeometry relative="1" as="geometry">
            <Array as="points">
              <mxPoint x="1863" y="350" />
              <mxPoint x="1754" y="350" />
            </Array>
          </mxGeometry>
        </mxCell>
        <mxCell id="30epbqIWe4ji9FLCHf8E-3" style="edgeStyle=orthogonalEdgeStyle;rounded=0;orthogonalLoop=1;jettySize=auto;html=1;entryX=0.5;entryY=0;entryDx=0;entryDy=0;" parent="1" source="mWvDDhN56M6IgN8WE3Ld-6" target="oT39nbBuMpAFQhDl_KzM-36" edge="1">
          <mxGeometry relative="1" as="geometry" />
        </mxCell>
        <mxCell id="30epbqIWe4ji9FLCHf8E-4" style="edgeStyle=orthogonalEdgeStyle;rounded=0;orthogonalLoop=1;jettySize=auto;html=1;entryX=0.5;entryY=0;entryDx=0;entryDy=0;" parent="1" source="mWvDDhN56M6IgN8WE3Ld-6" target="oT39nbBuMpAFQhDl_KzM-33" edge="1">
          <mxGeometry relative="1" as="geometry">
            <Array as="points">
              <mxPoint x="1863" y="350" />
              <mxPoint x="1944" y="350" />
            </Array>
          </mxGeometry>
        </mxCell>
        <mxCell id="mWvDDhN56M6IgN8WE3Ld-6" value="Наземные комплексы" style="rounded=0;whiteSpace=wrap;html=1;" parent="1" vertex="1">
          <mxGeometry x="1823" y="300" width="79" height="40" as="geometry" />
        </mxCell>
        <mxCell id="mWvDDhN56M6IgN8WE3Ld-8" value="Инфраструктура интернет-шлюзов&amp;nbsp;" style="rounded=0;whiteSpace=wrap;html=1;" parent="1" vertex="1">
          <mxGeometry x="1683" y="300" width="130" height="40" as="geometry" />
        </mxCell>
        <mxCell id="mWvDDhN56M6IgN8WE3Ld-9" value="Абонентские станции и терминалы" style="rounded=0;whiteSpace=wrap;html=1;" parent="1" vertex="1">
          <mxGeometry x="2116" y="300" width="130" height="40" as="geometry" />
        </mxCell>
        <mxCell id="mWvDDhN56M6IgN8WE3Ld-10" value="Средства запуска и выведения" style="rounded=0;whiteSpace=wrap;html=1;" parent="1" vertex="1">
          <mxGeometry x="1986" y="300" width="120" height="40" as="geometry" />
        </mxCell>
        <mxCell id="mWvDDhN56M6IgN8WE3Ld-14" value="Комплекс обработки и передачи данных" style="rounded=0;whiteSpace=wrap;html=1;" parent="1" vertex="1">
          <mxGeometry x="1693" y="364" width="122" height="40" as="geometry" />
        </mxCell>
        <mxCell id="oT39nbBuMpAFQhDl_KzM-33" value="Наземная сеть КС" style="rounded=0;whiteSpace=wrap;html=1;" parent="1" vertex="1">
          <mxGeometry x="1910" y="364" width="67" height="40" as="geometry" />
        </mxCell>
        <mxCell id="oT39nbBuMpAFQhDl_KzM-36" value="Система мониторинга" style="rounded=0;whiteSpace=wrap;html=1;" parent="1" vertex="1">
          <mxGeometry x="1823" y="364" width="80" height="40" as="geometry" />
        </mxCell>
        <mxCell id="oT39nbBuMpAFQhDl_KzM-56" value="" style="endArrow=classic;html=1;rounded=0;entryX=0.5;entryY=0;entryDx=0;entryDy=0;exitX=0.5;exitY=0;exitDx=0;exitDy=0;edgeStyle=orthogonalEdgeStyle;" parent="1" source="mWvDDhN56M6IgN8WE3Ld-3" target="mWvDDhN56M6IgN8WE3Ld-5" edge="1">
          <mxGeometry width="50" height="50" relative="1" as="geometry">
            <mxPoint x="1936" y="300" as="sourcePoint" />
            <mxPoint x="1986" y="250" as="targetPoint" />
            <Array as="points">
              <mxPoint x="1961" y="250" />
              <mxPoint x="1946" y="250" />
            </Array>
          </mxGeometry>
        </mxCell>
        <mxCell id="oT39nbBuMpAFQhDl_KzM-57" value="" style="endArrow=classic;html=1;rounded=0;exitX=0.5;exitY=0;exitDx=0;exitDy=0;entryX=0.5;entryY=0;entryDx=0;entryDy=0;edgeStyle=orthogonalEdgeStyle;" parent="1" source="mWvDDhN56M6IgN8WE3Ld-3" target="mWvDDhN56M6IgN8WE3Ld-10" edge="1">
          <mxGeometry width="50" height="50" relative="1" as="geometry">
            <mxPoint x="1946.2799999999997" y="209.9800000000001" as="sourcePoint" />
            <mxPoint x="2036" y="299.98000000000013" as="targetPoint" />
            <Array as="points">
              <mxPoint x="1961" y="250" />
              <mxPoint x="2046" y="250" />
            </Array>
          </mxGeometry>
        </mxCell>
        <mxCell id="oT39nbBuMpAFQhDl_KzM-58" value="" style="endArrow=classic;html=1;rounded=0;entryX=0.5;entryY=0;entryDx=0;entryDy=0;exitX=0.5;exitY=0;exitDx=0;exitDy=0;edgeStyle=orthogonalEdgeStyle;" parent="1" source="mWvDDhN56M6IgN8WE3Ld-3" target="mWvDDhN56M6IgN8WE3Ld-9" edge="1">
          <mxGeometry width="50" height="50" relative="1" as="geometry">
            <mxPoint x="2116" y="290" as="sourcePoint" />
            <mxPoint x="2166" y="240" as="targetPoint" />
            <Array as="points">
              <mxPoint x="1961" y="250" />
              <mxPoint x="2181" y="250" />
            </Array>
          </mxGeometry>
        </mxCell>
      </root>
    </mxGraphModel>
  </diagram>
</mxfile>
